<?xml version="1.0" standalone="no"?>
<!DOCTYPE svg PUBLIC "-//W3C//DTD SVG 20010904//EN"
 "http://www.w3.org/TR/2001/REC-SVG-20010904/DTD/svg10.dtd">
<svg version="1.0" xmlns="http://www.w3.org/2000/svg"
 width="512.000000pt" height="512.000000pt" viewBox="0 0 512.000000 512.000000"
 preserveAspectRatio="xMidYMid meet">
<metadata>
Created by potrace 1.11, written by Peter Selinger 2001-2013
</metadata>
<g transform="translate(0.000000,512.000000) scale(0.100000,-0.100000)"
fill="#000000" stroke="none">
<path d="M3775 5070 c-3 -5 -1 -10 4 -10 6 0 11 5 11 10 0 6 -2 10 -4 10 -3 0
-8 -4 -11 -10z"/>
<path d="M3754 5027 c-19 -41 -146 -272 -157 -285 -5 -7 -12 -10 -15 -7 -3 3
-12 -1 -21 -9 -9 -7 -65 -41 -126 -76 -94 -54 -264 -163 -299 -191 -72 -60
-167 -150 -205 -194 -19 -22 -67 -76 -107 -120 -92 -100 -201 -245 -284 -378
-68 -108 -230 -419 -230 -441 0 -24 -35 -44 -155 -86 -199 -69 -190 -63 -250
-165 -177 -301 -333 -646 -394 -870 -13 -44 -25 -88 -28 -98 -3 -12 47 16 144
81 269 180 442 281 444 259 2 -14 2 -3 -6 -116 -6 -85 -5 -94 13 -107 16 -11
18 -20 12 -54 -4 -22 -5 -40 -2 -40 2 0 -1 -7 -8 -15 -10 -12 -16 -13 -28 -3
-11 9 -14 9 -9 1 4 -7 -1 -14 -14 -18 -11 -4 -18 -9 -15 -12 3 -4 1 -13 -6
-20 -9 -11 -9 -17 3 -24 11 -7 8 -9 -10 -9 -20 0 -21 -2 -11 -15 12 -14 7 -19
-14 -16 -15 3 -36 -21 -29 -32 13 -21 10 -45 -4 -40 -11 4 -11 8 -1 22 11 14
11 14 -3 4 -9 -7 -19 -9 -23 -5 -4 4 -6 0 -4 -8 2 -8 -2 -14 -9 -15 -6 0 -15
-4 -20 -8 -4 -5 -1 -7 7 -5 10 2 15 -6 16 -25 1 -19 -3 -26 -15 -25 -20 4 -21
-23 -2 -38 11 -9 11 -11 -5 -9 -11 0 -26 5 -34 10 -13 8 -13 6 -2 -8 14 -17 8
-42 -8 -32 -5 3 -12 0 -16 -6 -5 -8 -3 -9 5 -5 8 5 14 0 18 -13 3 -11 10 -18
16 -14 6 3 7 1 3 -5 -4 -7 -16 -12 -26 -12 -10 0 -22 -5 -25 -10 -4 -7 3 -9
19 -6 15 3 24 1 21 -5 -4 -5 -14 -9 -23 -9 -15 -1 -15 -2 2 -15 12 -9 15 -15
7 -15 -8 0 -11 -6 -7 -16 6 -15 3 -14 -21 1 l-27 18 22 -28 c17 -21 19 -31 11
-46 -5 -11 -7 -24 -3 -30 4 -8 1 -8 -13 -1 -15 9 -20 8 -20 -3 0 -8 4 -12 8
-9 4 2 10 0 14 -6 3 -5 -1 -10 -10 -10 -9 0 -13 -5 -10 -10 4 -6 11 -8 16 -5
5 4 9 1 9 -4 0 -6 -5 -11 -11 -11 -6 0 -8 -7 -5 -16 5 -13 3 -14 -7 -6 -9 8
-17 8 -27 0 -12 -8 -12 -9 3 -4 9 3 17 2 18 -2 0 -4 2 -18 5 -32 3 -18 2 -21
-5 -10 -5 8 -8 17 -5 21 2 4 -6 4 -18 1 -19 -5 -20 -7 -5 -10 14 -3 16 -7 6
-18 -6 -7 -15 -12 -19 -9 -4 2 -7 -10 -6 -28 1 -18 7 -32 13 -32 20 0 24 -12
8 -25 -20 -16 -19 -34 1 -26 9 3 12 2 9 -5 -4 -6 -13 -8 -21 -5 -9 3 -14 -1
-14 -13 0 -11 6 -22 13 -24 9 -4 9 -6 -1 -6 -7 -1 -10 -5 -7 -11 3 -6 -1 -7
-10 -3 -12 4 -13 8 -5 13 8 5 8 10 2 14 -17 10 -22 -22 -6 -38 11 -12 12 -20
5 -34 -7 -13 -6 -23 2 -32 10 -12 9 -12 -6 0 -16 12 -18 11 -13 -13 3 -17 -1
-27 -10 -31 -10 -4 -12 -2 -8 6 4 7 3 8 -4 4 -18 -11 -14 -24 9 -31 16 -5 18
-9 9 -15 -7 -4 -10 -12 -7 -17 3 -5 0 -10 -8 -10 -11 0 -12 5 -3 21 6 12 7 18
3 14 -5 -4 -14 -3 -20 2 -9 7 -17 5 -26 -7 -13 -16 -12 -17 3 -5 12 9 18 10
23 2 8 -13 8 -12 -20 -29 -19 -11 -19 -12 3 -6 19 6 23 3 20 -11 -2 -10 2 -19
9 -19 6 0 15 -4 20 -9 4 -5 3 -6 -4 -2 -6 3 -17 -2 -23 -11 -11 -17 -11 -17
-6 0 3 9 0 17 -5 17 -7 0 -9 -11 -7 -25 6 -28 5 -29 -25 -14 -19 9 -20 8 -6
-3 9 -7 14 -22 12 -33 -2 -11 -5 -27 -7 -35 -3 -23 -16 -41 -26 -35 -4 3 -3
-6 3 -19 7 -13 15 -22 20 -19 5 3 3 -4 -5 -16 -7 -12 -17 -21 -22 -21 -4 0 -3
6 3 14 9 11 9 16 0 22 -7 4 -9 3 -5 -4 3 -6 -1 -15 -10 -20 -15 -9 -15 -10 4
-16 23 -8 28 -21 13 -31 -6 -3 -15 3 -21 12 -8 15 -9 12 -4 -12 5 -28 4 -29
-10 -11 -14 18 -15 18 -13 -2 0 -11 5 -18 9 -16 4 3 8 -1 8 -10 0 -8 -6 -17
-12 -19 -10 -4 -10 -6 -1 -6 7 -1 19 11 27 27 18 32 21 24 4 -13 -10 -22 -26
-30 -51 -26 -5 1 -6 -3 -2 -9 3 -6 10 -8 14 -6 4 3 13 0 21 -6 12 -8 12 -9 -2
-4 -10 3 -18 1 -18 -5 0 -6 -4 -8 -8 -5 -16 10 -9 -29 7 -41 14 -10 14 -11 1
-10 -8 2 -20 6 -26 9 -6 4 -11 1 -11 -7 0 -8 4 -12 9 -9 4 3 8 1 8 -5 0 -5 -6
-12 -12 -14 -10 -4 -10 -6 0 -6 7 -1 10 -6 7 -11 -5 -8 -12 -7 -23 2 -14 10
-15 10 -4 -2 14 -17 16 -34 2 -25 -16 10 -11 -1 7 -16 9 -8 14 -9 11 -4 -4 6
-3 17 1 24 5 7 8 -4 7 -27 0 -22 -3 -40 -6 -40 -18 1 -21 -4 -9 -19 13 -16 11
-16 -15 1 -16 10 -26 13 -22 8 3 -6 2 -13 -2 -16 -5 -3 -8 -17 -7 -31 2 -14
-1 -25 -6 -25 -4 0 -6 -7 -3 -15 5 -11 1 -14 -12 -9 -15 5 -16 4 -4 -4 19 -14
40 3 35 29 -2 11 0 17 4 15 5 -3 7 6 5 20 -1 14 0 23 3 20 11 -11 12 -56 2
-56 -6 0 -8 -4 -4 -9 3 -5 1 -12 -5 -16 -6 -4 -8 -11 -4 -16 3 -5 10 -6 16 -3
7 4 8 2 4 -5 -6 -9 -11 -9 -22 0 -12 10 -14 8 -10 -12 2 -13 9 -23 15 -22 6 2
11 -2 11 -8 0 -6 -7 -9 -15 -6 -22 9 -28 -10 -8 -23 14 -9 15 -10 2 -7 -9 3
-23 0 -30 -6 -11 -10 -11 -9 0 5 9 12 10 18 2 18 -10 0 -15 -13 -12 -32 0 -5
-4 -8 -11 -8 -6 0 -9 -3 -6 -6 4 -3 16 0 28 6 17 9 25 9 34 0 8 -8 6 -10 -9
-5 -18 6 -18 5 2 -13 20 -17 21 -22 8 -32 -8 -7 -15 -9 -15 -4 0 4 -5 3 -12
-4 -7 -7 -17 -12 -22 -12 -6 0 -2 7 8 15 10 8 23 12 27 9 5 -3 9 0 9 5 0 15
-12 14 -38 -5 -12 -8 -20 -20 -17 -25 7 -10 53 -2 71 12 6 5 14 6 17 2 4 -3 7
-1 7 6 0 7 6 11 14 8 17 -7 28 16 19 40 -5 15 -3 15 9 -1 13 -17 13 -22 2 -34
-17 -16 -18 -32 -2 -32 6 0 8 3 5 7 -4 3 -2 12 4 19 13 15 42 7 32 -10 -3 -6
-2 -7 2 -3 16 14 14 36 -3 30 -16 -4 -16 -3 0 9 15 13 15 15 -3 26 -11 7 -19
8 -19 2 0 -5 5 -10 11 -10 5 0 7 -5 3 -11 -5 -8 -10 -6 -16 5 -12 22 -1 41 17
26 15 -13 41 -4 49 16 4 10 1 13 -7 9 -6 -4 -3 0 7 9 10 8 23 17 29 19 6 2 5
12 -3 26 -6 13 -8 21 -2 17 5 -3 15 1 22 9 10 12 10 19 -1 32 -13 17 -13 17 5
3 18 -14 19 -13 13 2 -4 12 -2 15 7 12 8 -3 17 -1 20 5 4 6 14 8 24 5 14 -5
14 -4 2 4 -9 7 -18 8 -26 1 -8 -7 -14 -6 -19 1 -4 6 -1 9 7 8 7 -2 12 2 11 9
-3 13 19 8 47 -10 8 -5 2 3 -15 19 -16 15 -22 25 -13 21 10 -3 20 -2 23 3 3 5
13 7 23 4 14 -5 14 -4 3 4 -8 6 -20 8 -28 5 -7 -3 -13 0 -13 7 0 6 4 9 9 6 5
-3 11 1 15 9 3 8 11 15 18 15 10 0 10 -2 0 -9 -11 -7 -11 -9 1 -14 9 -3 14 1
14 11 0 47 3 54 21 47 13 -5 14 -3 5 6 -13 13 -7 39 9 39 7 0 6 -5 -1 -14 -9
-10 -8 -15 3 -19 9 -4 18 -1 22 5 5 7 2 8 -6 3 -10 -6 -12 -4 -7 7 3 9 1 20
-5 26 -6 6 -6 12 3 17 7 5 10 4 6 -2 -4 -6 0 -13 8 -16 18 -7 8 22 -14 42 -10
8 -7 8 10 -2 15 -9 31 -12 39 -7 9 6 7 10 -8 14 -21 7 -21 7 -1 27 26 26 36
24 13 -3 -10 -13 -15 -20 -10 -16 5 4 16 2 25 -5 14 -10 14 -10 3 5 -10 13
-10 17 0 20 10 4 11 8 1 20 -14 17 -8 29 12 22 7 -3 16 0 21 7 5 8 3 10 -5 4
-10 -6 -10 -3 0 16 7 13 12 25 11 27 -5 7 8 6 15 -2 4 -5 3 -6 -4 -3 -13 8
-12 -18 2 -30 4 -4 5 -3 1 4 -3 6 -2 14 4 18 7 4 6 14 -2 28 -10 20 -10 21 6
8 14 -12 16 -12 10 3 -3 9 -1 16 5 16 6 0 11 -4 11 -10 0 -5 4 -10 9 -10 6 0
8 9 6 21 -3 14 0 19 9 16 7 -3 13 1 13 9 0 7 -4 11 -9 8 -4 -3 -8 4 -8 15 0
12 5 21 11 21 5 0 8 4 5 9 -3 5 1 14 8 20 11 9 16 9 22 0 5 -8 3 -9 -6 -4 -9
6 -11 4 -5 -5 6 -9 4 -11 -6 -5 -8 5 -11 5 -7 0 4 -4 2 -15 -5 -23 -8 -11 -8
-14 0 -9 6 4 14 1 17 -5 3 -7 4 -4 3 7 -1 11 3 19 10 18 12 -3 11 13 -2 52 -5
15 -4 16 3 6 5 -7 12 -9 14 -5 3 5 3 4 2 -3 -2 -7 2 -15 8 -19 7 -4 8 -3 4 4
-4 7 -3 12 2 12 5 0 7 11 4 25 -2 14 0 25 7 25 5 0 8 -8 5 -18 -5 -14 -4 -14
4 -2 6 8 8 18 5 22 -2 5 1 15 7 23 6 8 9 19 6 24 -4 6 2 8 14 6 11 -2 21 -1
21 3 7 41 6 61 -2 57 -5 -4 -9 -1 -9 4 0 15 15 14 29 -3 8 -10 9 -16 1 -19 -6
-3 -5 -4 2 -3 7 2 12 13 12 24 -1 20 12 28 39 23 5 -1 6 3 3 8 -4 5 -2 13 4
16 6 4 8 15 5 26 -7 21 10 27 18 7 3 -8 6 -5 6 5 1 10 5 16 9 13 5 -3 9 2 9
10 0 10 -4 11 -11 4 -5 -5 -15 -10 -20 -10 -6 0 -5 4 3 9 13 8 13 12 1 28 -12
15 -12 16 0 6 20 -18 39 -16 35 5 -4 25 5 35 21 21 12 -10 13 -9 9 4 -4 8 -1
18 5 22 8 5 5 12 -7 22 -12 10 -9 10 10 -2 28 -16 28 -16 18 3 -8 15 -7 23 3
31 7 6 15 8 19 5 3 -3 13 -2 22 4 16 8 16 9 1 15 -12 5 -15 3 -10 -6 5 -8 2
-7 -9 2 -21 17 -22 16 13 17 17 1 30 -3 30 -9 0 -6 3 -7 6 -4 10 10 -17 38
-29 30 -6 -3 -7 -1 -3 6 4 6 12 9 17 6 5 -4 9 -1 9 5 0 7 6 10 13 7 8 -3 14 5
15 21 2 25 2 25 -13 6 -15 -18 -15 -18 -4 5 11 24 12 24 25 6 16 -22 19 -12 4
16 -8 14 -8 19 2 17 8 -2 12 9 12 29 0 17 4 29 9 26 4 -3 6 -11 3 -19 -4 -12
-2 -12 14 -4 11 6 20 13 20 16 0 3 -4 3 -9 0 -5 -3 -11 1 -14 9 -4 10 -1 12
10 8 11 -4 14 -3 9 6 -4 6 -2 18 4 26 6 8 9 19 6 24 -4 5 -1 13 5 17 8 5 9 3
4 -7 -7 -11 -6 -12 7 -2 8 7 17 11 20 8 3 -3 4 6 4 19 -1 14 -6 29 -10 33 -5
4 -6 3 -3 -3 3 -6 0 -11 -8 -11 -17 0 -5 19 30 49 16 14 18 19 7 30 -11 11
-12 10 -7 -3 4 -10 2 -20 -4 -24 -7 -4 -8 0 -4 11 5 13 3 15 -8 9 -11 -7 -11
-5 1 11 8 10 20 22 25 26 6 5 6 8 -1 8 -22 0 -23 31 -2 52 l21 21 -21 -5 c-12
-4 -20 -2 -16 3 3 5 14 9 24 9 11 0 30 11 44 25 18 18 32 24 49 20 18 -5 35 7
95 69 39 41 74 72 76 68 9 -15 57 -223 72 -312 2 -14 7 -41 10 -60 4 -19 8
-48 10 -65 2 -16 6 -37 9 -45 5 -16 18 -107 18 -127 0 -7 2 -13 4 -13 9 0 157
237 206 332 95 181 200 436 253 610 l23 78 -55 151 -55 151 22 46 c125 263
212 500 255 697 24 106 41 204 48 275 3 30 8 66 11 80 20 95 27 367 12 480
-14 102 -52 319 -62 350 -5 15 35 132 76 225 26 60 48 125 41 125 -4 0 -12
-10 -18 -23z m-1707 -2952 c0 -8 -4 -12 -9 -9 -4 3 -8 0 -8 -5 0 -6 -5 -11
-10 -11 -6 0 -5 8 2 20 15 24 25 26 25 5z m-74 -99 c4 -10 1 -13 -8 -9 -8 3
-12 9 -9 14 7 12 11 11 17 -5z m-43 -56 c0 -5 -5 -10 -11 -10 -5 0 -7 5 -4 10
3 6 8 10 11 10 2 0 4 -4 4 -10z m13 -25 c-3 -9 -8 -14 -10 -11 -3 3 -2 9 2 15
9 16 15 13 8 -4z m-28 -47 c5 4 5 1 1 -6 -6 -10 -11 -10 -22 -1 -8 6 -14 14
-14 16 0 3 6 0 13 -6 8 -6 18 -7 22 -3z m-35 -58 c-7 -4 -10 -13 -6 -19 4 -7
1 -9 -8 -5 -12 5 -13 10 -4 24 7 10 16 16 21 13 5 -3 4 -9 -3 -13z m695 -120
c-3 -5 -12 -7 -20 -3 -21 7 -19 13 6 13 11 0 18 -4 14 -10z m-807 -264 c0 -27
-24 -44 -25 -18 0 15 14 42 22 42 1 0 3 -11 3 -24z m482 -241 c-7 -9 -15 -13
-19 -10 -3 3 1 10 9 15 21 14 24 12 10 -5z m-80 -85 c0 -5 -5 -10 -11 -10 -5
0 -7 5 -4 10 3 6 8 10 11 10 2 0 4 -4 4 -10z m-517 -145 c-7 -21 -12 -19 -10
4 0 11 5 18 9 15 4 -3 5 -11 1 -19z m2 -55 c3 -5 0 -7 -8 -4 -8 3 -18 1 -22
-5 -3 -6 -1 -11 6 -11 7 0 10 -3 6 -6 -3 -3 -11 -3 -17 1 -8 5 -8 11 1 21 13
16 25 18 34 4z m360 -30 c2 -12 1 -20 -2 -16 -4 4 -8 16 -10 28 -4 28 6 18 12
-12z m-410 -159 c3 -5 2 -12 -3 -15 -5 -3 -9 1 -9 9 0 17 3 19 12 6z m-35 -65
c14 -18 14 -18 -7 -6 -12 8 -19 18 -16 23 3 4 6 7 7 5 1 -2 8 -12 16 -22z
m-23 -58 c2 -17 0 -19 -7 -8 -5 8 -6 18 -4 22 8 12 10 10 11 -14z m263 18 c0
-3 -4 -8 -10 -11 -5 -3 -10 -1 -10 4 0 6 5 11 10 11 6 0 10 -2 10 -4z m-140
-206 c0 -5 -5 -10 -11 -10 -5 0 -7 5 -4 10 3 6 8 10 11 10 2 0 4 -4 4 -10z
m-19 -63 c-8 -8 -14 -7 -23 2 -11 10 -9 11 6 5 15 -6 17 -4 11 6 -6 9 -4 11 4
5 9 -5 10 -10 2 -18z m-36 -27 c-2 -29 -10 -33 -26 -13 -8 9 -9 14 -3 10 7 -4
14 0 18 8 8 21 13 19 11 -5z m-108 -65 c0 -8 -4 -12 -9 -9 -5 3 -6 10 -3 15 9
13 12 11 12 -6z"/>
<path d="M2063 2125 c0 -8 4 -12 9 -9 5 3 6 10 3 15 -9 13 -12 11 -12 -6z"/>
<path d="M1976 2053 c-6 -14 -5 -15 5 -6 7 7 10 15 7 18 -3 3 -9 -2 -12 -12z"/>
<path d="M2599 1843 c-7 -10 -9 -15 -5 -11 5 4 15 0 23 -10 13 -15 13 -15 4 4
-6 12 -7 24 -4 28 3 3 4 6 1 6 -3 0 -12 -8 -19 -17z"/>
<path d="M2595 1721 c-3 -5 -2 -12 3 -15 5 -3 9 1 9 9 0 17 -3 19 -12 6z"/>
<path d="M1807 1679 c7 -7 15 -10 18 -7 3 3 -2 9 -12 12 -14 6 -15 5 -6 -5z"/>
<path d="M1799 1621 c11 -7 11 -9 0 -13 -8 -3 -10 -9 -6 -14 9 -10 28 16 21
28 -3 4 -11 8 -17 8 -8 0 -7 -3 2 -9z"/>
<path d="M1767 1519 c7 -7 15 -10 18 -7 3 3 -2 9 -12 12 -14 6 -15 5 -6 -5z"/>
<path d="M2495 1500 c3 -5 8 -10 11 -10 2 0 4 5 4 10 0 6 -5 10 -11 10 -5 0
-7 -4 -4 -10z"/>
<path d="M1731 1341 c-12 -11 -18 -21 -14 -24 4 -3 16 6 26 19 22 29 18 31
-12 5z"/>
<path d="M2390 1340 c0 -5 5 -10 11 -10 5 0 7 5 4 10 -3 6 -8 10 -11 10 -2 0
-4 -4 -4 -10z"/>
<path d="M1696 1302 c-3 -5 1 -9 9 -9 8 0 12 4 9 9 -3 4 -7 8 -9 8 -2 0 -6 -4
-9 -8z"/>
<path d="M2355 1300 c3 -5 8 -10 11 -10 2 0 4 5 4 10 0 6 -5 10 -11 10 -5 0
-7 -4 -4 -10z"/>
<path d="M2330 1259 c0 -5 5 -7 10 -4 6 3 10 8 10 11 0 2 -4 4 -10 4 -5 0 -10
-5 -10 -11z"/>
<path d="M1696 1211 c4 -15 2 -21 -4 -17 -6 3 -13 2 -16 -3 -4 -5 1 -8 10 -7
9 1 21 11 26 21 7 12 7 16 0 11 -6 -3 -13 0 -16 6 -3 7 -3 2 0 -11z"/>
<path d="M1670 1160 c-12 -7 -10 -9 7 -7 12 0 19 5 17 9 -6 10 -6 10 -24 -2z"/>
<path d="M2230 1118 c0 -4 4 -8 9 -8 6 0 12 4 15 8 3 5 -1 9 -9 9 -8 0 -15 -4
-15 -9z"/>
<path d="M2191 1044 c0 -11 3 -14 6 -6 3 7 2 16 -1 19 -3 4 -6 -2 -5 -13z"/>
<path d="M2150 1025 c-11 -13 -10 -14 4 -9 9 3 16 10 16 15 0 13 -6 11 -20 -6z"/>
<path d="M1595 900 c3 -5 8 -10 11 -10 2 0 4 5 4 10 0 6 -5 10 -11 10 -5 0 -7
-4 -4 -10z"/>
<path d="M1488 509 c17 -18 15 -30 -3 -23 -8 4 -15 4 -15 1 0 -13 30 -14 40
-2 9 11 6 16 -12 26 -19 9 -21 9 -10 -2z"/>
<path d="M1425 400 c-3 -6 1 -7 9 -4 18 7 21 14 7 14 -6 0 -13 -4 -16 -10z"/>
<path d="M1686 361 c-15 -16 -15 -19 -2 -24 11 -4 13 -1 9 10 -4 10 -2 14 4
10 5 -3 10 0 10 8 0 19 0 19 -21 -4z"/>
<path d="M1433 337 c12 -10 14 -17 8 -22 -15 -9 -14 -28 1 -23 20 7 17 38 -5
49 -20 9 -21 9 -4 -4z"/>
<path d="M1659 298 c-6 -20 -6 -39 0 -42 4 -3 7 6 7 20 0 20 -4 32 -7 22z"/>
<path d="M1420 220 c-12 -7 -10 -9 8 -7 12 0 22 5 22 9 0 11 -12 10 -30 -2z"/>
<path d="M1515 180 c-4 -6 -10 -8 -15 -5 -4 3 -13 -2 -20 -10 -7 -8 -16 -12
-21 -9 -5 3 -6 -2 -2 -12 6 -15 7 -15 15 0 6 11 14 14 21 8 7 -5 20 -9 29 -9
13 0 15 4 8 17 -5 10 -6 20 -3 24 3 3 4 6 0 6 -3 0 -9 -5 -12 -10z m5 -22 c0
-4 -4 -8 -9 -8 -6 0 -12 4 -15 8 -3 5 1 9 9 9 8 0 15 -4 15 -9z"/>
<path d="M1427 139 c7 -7 15 -10 18 -7 3 3 -2 9 -12 12 -14 6 -15 5 -6 -5z"/>
</g>
</svg>
